<?xml version="1.0" standalone="no"?>
<!DOCTYPE svg PUBLIC "-//W3C//DTD SVG 20010904//EN"
 "http://www.w3.org/TR/2001/REC-SVG-20010904/DTD/svg10.dtd">
<svg version="1.0" xmlns="http://www.w3.org/2000/svg"
 width="741.000000pt" height="741.000000pt" viewBox="0 0 741.000000 741.000000"
 preserveAspectRatio="xMidYMid meet">
<metadata>
Created by potrace 1.16, written by Peter Selinger 2001-2019
</metadata>
<g transform="translate(0.000000,741.000000) scale(0.100000,-0.100000)"
fill="#000000" stroke="none">
<path d="M2707 6055 c-184 -40 -363 -202 -420 -381 -35 -109 -37 -161 -37
-1073 0 -1009 -1 -1000 67 -1140 45 -96 159 -214 249 -259 141 -71 70 -67
1159 -67 978 0 980 0 1048 22 188 60 322 192 394 389 17 46 18 115 18 1054 0
817 -3 1012 -13 1045 -31 89 -80 172 -141 238 -70 74 -141 121 -242 158 l-64
24 -980 2 c-768 1 -993 -2 -1038 -12z m1811 -882 l-3 -588 -197 -3 -198 -2 0
590 0 590 200 0 200 0 -2 -587z"/>
<path d="M1470 2420 l0 -270 110 0 c161 0 237 36 296 142 25 46 29 64 29 129
0 47 -6 87 -15 105 -29 58 -81 113 -132 138 -47 24 -63 26 -170 26 l-118 0 0
-270z m261 135 c50 -32 72 -84 67 -152 -7 -86 -74 -143 -168 -143 l-50 0 0
159 c0 118 3 161 13 164 24 11 103 -6 138 -28z"/>
<path d="M2090 2420 l0 -270 191 0 190 0 -3 53 -3 52 -133 3 -133 3 3 52 3 52
88 3 87 3 0 49 0 49 -87 3 -88 3 0 55 0 55 130 5 130 5 3 48 3 47 -190 0 -191
0 0 -270z"/>
<path d="M2657 2683 c-4 -3 -7 -125 -7 -270 l0 -263 191 0 190 0 -3 53 -3 52
-133 3 -133 3 3 52 3 52 88 3 87 3 0 49 0 50 -79 0 c-92 0 -104 8 -99 72 l3
43 133 3 132 3 0 49 0 50 -183 0 c-101 0 -187 -3 -190 -7z"/>
<path d="M3220 2420 l0 -270 49 0 50 0 3 53 3 52 90 5 c100 6 137 21 180 72
95 113 64 272 -67 339 -31 16 -59 19 -173 19 l-135 0 0 -270z m286 139 c37
-34 48 -80 30 -122 -22 -55 -52 -68 -137 -65 l-74 3 -3 94 c-4 120 0 125 92
118 52 -5 74 -11 92 -28z"/>
<path d="M3830 2420 l0 -270 155 0 c170 0 187 4 239 59 41 43 47 112 15 175
-22 44 -22 46 -4 66 10 11 20 41 23 68 6 62 -18 114 -67 148 -34 23 -42 24
-198 24 l-163 0 0 -270z m278 164 c66 -13 60 -94 -9 -108 -52 -10 -144 -7
-157 6 -16 16 -16 80 0 96 13 13 114 16 166 6z m35 -246 c19 -26 19 -28 3 -53
-17 -25 -19 -26 -114 -23 l-97 3 -3 29 c-2 15 -1 39 3 53 5 23 8 24 97 21 86
-3 92 -5 111 -30z"/>
<path d="M4460 2420 l0 -270 190 0 190 0 0 55 0 55 -135 0 -135 0 0 215 0 215
-55 0 -55 0 0 -270z"/>
<path d="M4987 2683 c-11 -10 -8 -294 3 -351 29 -157 192 -229 327 -146 35 22
55 44 75 84 27 54 28 58 28 238 l0 182 -55 0 -55 0 0 -175 c0 -188 -5 -212
-50 -238 -44 -27 -94 -22 -132 12 l-33 29 -3 186 -3 186 -48 0 c-26 0 -51 -3
-54 -7z"/>
<path d="M5630 2420 l0 -270 186 0 185 0 -3 53 -3 52 -130 5 -130 5 -3 29 c-2
15 -1 39 2 52 6 23 10 24 91 24 l85 0 0 50 0 50 -78 0 c-47 0 -83 5 -90 12
-13 13 -16 76 -4 95 5 8 48 13 132 15 l125 3 3 48 3 47 -185 0 -186 0 0 -270z"/>
<path d="M1233 1905 c-39 -17 -73 -68 -73 -110 0 -43 35 -94 75 -111 19 -8 61
-14 94 -14 50 0 62 -3 71 -20 8 -14 8 -26 0 -40 -9 -17 -23 -20 -113 -22
l-102 -3 -3 -37 -3 -38 115 0 c108 0 116 1 145 25 62 53 62 137 0 190 -26 21
-40 25 -99 25 -86 0 -119 25 -90 70 7 11 35 16 115 18 l105 4 0 39 0 39 -102
0 c-66 -1 -115 -6 -135 -15z"/>
<path d="M1667 1913 c-4 -3 -7 -96 -7 -205 l0 -198 146 0 145 0 -3 38 -3 37
-102 3 -103 3 0 164 0 165 -33 0 c-19 0 -37 -3 -40 -7z"/>
<path d="M2202 1904 c-127 -65 -163 -221 -74 -325 87 -102 232 -105 319 -6 85
97 67 229 -44 314 -46 35 -148 44 -201 17z m180 -101 c80 -81 21 -223 -93
-223 -42 0 -97 34 -117 70 -20 38 -10 115 19 146 33 36 56 44 112 40 38 -2 55
-10 79 -33z"/>
<path d="M2771 1898 c-51 -25 -93 -79 -111 -141 -27 -97 45 -221 142 -248 53
-14 128 -6 168 18 29 17 30 19 30 100 l0 83 -35 0 -35 0 0 -49 c0 -66 -19 -85
-78 -78 -79 9 -136 90 -113 160 26 77 126 122 185 83 14 -9 29 -16 33 -16 9 0
43 52 43 65 0 3 -19 15 -42 25 -58 26 -132 26 -187 -2z"/>
<path d="M3305 1913 c-36 -9 -87 -55 -106 -97 -15 -33 -19 -66 -19 -173 l0
-133 39 0 c39 0 40 1 43 38 l3 37 83 3 82 3 0 -41 0 -40 41 0 41 0 -4 153 c-3
142 -5 154 -27 186 -38 53 -111 80 -176 64z m103 -109 c17 -20 22 -37 22 -80
l0 -55 -82 3 -83 3 -3 42 c-8 104 82 158 146 87z"/>
<path d="M3710 1715 l0 -205 40 0 39 0 3 128 3 127 50 -85 c28 -47 60 -103 71
-125 20 -37 26 -40 68 -43 l46 -3 0 205 0 206 -40 0 -40 0 0 -125 c0 -69 -3
-125 -7 -125 -5 0 -26 31 -47 68 -114 195 -104 182 -147 182 l-39 0 0 -205z"/>
<path d="M4517 1913 c-4 -3 -7 -96 -7 -205 l0 -198 40 0 39 0 3 78 3 77 83 3
82 3 0 -81 0 -80 40 0 40 0 0 206 0 205 -37 -3 -38 -3 -3 -82 -3 -83 -78 0
c-92 0 -91 -1 -91 101 l0 69 -33 0 c-19 0 -37 -3 -40 -7z"/>
<path d="M5040 1715 l0 -205 140 0 140 0 0 40 0 40 -100 0 -100 0 0 40 0 40
65 0 c61 0 65 2 71 25 11 44 0 54 -68 57 l-63 3 0 40 0 40 98 3 97 3 0 39 0
40 -140 0 -140 0 0 -205z"/>
<path d="M5500 1716 l0 -206 40 0 40 0 0 40 0 40 45 0 c42 0 46 -2 65 -40 19
-37 24 -40 60 -40 22 0 40 2 40 4 0 2 -9 26 -20 51 -20 46 -20 48 -2 64 59 54
74 151 33 210 -45 63 -75 75 -193 80 l-108 3 0 -206z m220 99 c14 -13 20 -31
20 -61 0 -59 -32 -84 -106 -84 l-54 0 0 86 0 86 60 -4 c39 -3 66 -11 80 -23z"/>
<path d="M6007 1913 c-4 -3 -7 -96 -7 -205 l0 -198 140 0 140 0 0 40 0 40
-101 0 -100 0 3 38 3 37 68 3 67 3 0 39 0 39 -67 3 -68 3 0 40 0 40 98 3 97 3
0 39 0 40 -133 0 c-74 0 -137 -3 -140 -7z"/>
</g>
</svg>
